<?xml version="1.0" encoding="iso-8859-1"?>
<!-- Generator: Adobe Illustrator 17.1.0, SVG Export Plug-In . SVG Version: 6.00 Build 0)  -->
<!DOCTYPE svg PUBLIC "-//W3C//DTD SVG 1.1//EN" "http://www.w3.org/Graphics/SVG/1.1/DTD/svg11.dtd">
<svg version="1.1" id="Capa_1" xmlns="http://www.w3.org/2000/svg" xmlns:xlink="http://www.w3.org/1999/xlink" x="0px" y="0px"
	 viewBox="0 0 492.867 492.867" style="enable-background:new 0 0 492.867 492.867;" xml:space="preserve">
<path d="M485.367,125.456h-28.746c-3.734-33.567-32.28-59.755-66.827-59.755H91.127c-34.542,0-63.085,26.184-66.826,59.755H7.5
	c-4.143,0-7.5,3.358-7.5,7.5v83.621v203.09c0,4.142,3.357,7.5,7.5,7.5h179.2h298.667c4.143,0,7.5-3.358,7.5-7.5v-203.09v-83.621
	C492.867,128.813,489.51,125.456,485.367,125.456z M389.794,80.7c28.806,0,52.241,23.436,52.241,52.255c0,4.142,3.357,7.5,7.5,7.5
	h28.332v68.621h-92.395c-0.046-0.001-0.09-0.007-0.135-0.007h-86.66c-0.046,0-0.09,0.006-0.135,0.007H194.2v-68.621h214.566
	c4.143,0,7.5-3.358,7.5-7.5s-3.357-7.5-7.5-7.5H186.7h-28.746c-2.004-18.016-11.162-33.899-24.552-44.755H389.794z M306.177,224.077
	h71.66v68.137h-71.66V224.077z M15,140.456h16.386c4.143,0,7.5-3.372,7.5-7.514c0-28.806,23.436-52.242,52.241-52.242
	s52.241,23.436,52.241,52.255c0,4.142,3.357,7.5,7.5,7.5H179.2v68.621H15V140.456z M15,412.167v-188.09h164.2v188.09H15z
	 M477.867,412.167H194.2v-188.09h96.977v75.637c0,4.142,3.357,7.5,7.5,7.5h86.66c4.143,0,7.5-3.358,7.5-7.5v-75.637h85.03V412.167z
	 M356.59,248.046c0,5.307-2.845,9.939-7.083,12.49v12.127c0,4.142-3.357,7.5-7.5,7.5s-7.5-3.358-7.5-7.5v-12.127
	c-4.239-2.551-7.083-7.182-7.083-12.49c0-8.054,6.529-14.583,14.583-14.583S356.59,239.992,356.59,248.046z"/>
<g>
</g>
<g>
</g>
<g>
</g>
<g>
</g>
<g>
</g>
<g>
</g>
<g>
</g>
<g>
</g>
<g>
</g>
<g>
</g>
<g>
</g>
<g>
</g>
<g>
</g>
<g>
</g>
<g>
</g>
</svg>
