<?xml version="1.0" encoding="iso-8859-1"?>
<!-- Generator: Adobe Illustrator 19.0.0, SVG Export Plug-In . SVG Version: 6.00 Build 0)  -->
<svg version="1.1" id="Capa_1" xmlns="http://www.w3.org/2000/svg" xmlns:xlink="http://www.w3.org/1999/xlink" x="0px" y="0px"
	 viewBox="0 0 512 512" style="enable-background:new 0 0 512 512;" xml:space="preserve">
<g>
	<g>
		<path d="M480,64H74.667v21.333H480c5.891,0,10.667,4.776,10.667,10.667v160H512V96C512,78.327,497.673,64,480,64z"/>
	</g>
</g>
<g>
	<g>
		<path d="M42.667,426.667c-11.782,0-21.333-9.551-21.333-21.333c0-11.782,9.551-21.333,21.333-21.333
			C54.449,384,64,393.551,64,405.333h21.333c0-23.564-19.102-42.667-42.667-42.667S0,381.769,0,405.333
			C0,428.898,19.103,448,42.667,448h234.667v-21.333H42.667z"/>
	</g>
</g>
<g>
	<g>
		<path d="M42.667,21.333C19.103,21.333,0,40.436,0,64v341.333h21.333V64c0-11.782,9.551-21.333,21.333-21.333
			C54.449,42.667,64,52.218,64,64v341.333h21.333V64C85.333,40.436,66.231,21.333,42.667,21.333z"/>
	</g>
</g>
<g>
	<g>
		<path d="M330.667,192h-128c-5.891,0-10.667,4.776-10.667,10.667v128c0,5.891,4.776,10.667,10.667,10.667h128
			c5.891,0,10.667-4.776,10.667-10.667v-128C341.333,196.776,336.558,192,330.667,192z M320,320H213.333V213.333H320V320z"/>
	</g>
</g>
<g>
	<g>
		<path d="M274.208,120.459c-4.165-4.164-10.917-4.164-15.083,0l-96,96l15.083,15.083l88.459-88.459l88.459,88.459l15.083-15.083
			L274.208,120.459z"/>
	</g>
</g>
<g>
	<g>
		<path d="M245.333,245.333c-5.891,0-10.667,4.776-10.667,10.667v74.667H256v-64h32v-21.333H245.333z"/>
	</g>
</g>
<g>
	<g>
		<path d="M508.875,311.179l-30.72-30.72c-4.165-4.164-10.917-4.164-15.083,0l-161.28,161.28c-4.164,4.165-4.164,10.917,0,15.083
			l30.72,30.72c2,2,4.713,3.125,7.541,3.125c2.829-0.001,5.541-1.125,7.541-3.125l161.28-161.28
			C513.039,322.096,513.039,315.344,508.875,311.179z M340.053,464.917l-15.637-15.637l146.197-146.197l15.637,15.637
			L340.053,464.917z"/>
	</g>
</g>
<g>
	<g>
		<path d="M320,469.333V448h-21.333v32c0,5.891,4.776,10.667,10.667,10.667h32v-21.333H320z"/>
	</g>
</g>
<g>
	<g>
		<path d="M490.667,362.667V416c0,5.891-4.776,10.667-10.667,10.667h-64V448h64c17.673,0,32-14.327,32-32v-53.333H490.667z"/>
	</g>
</g>
<g>
	<g>
		<rect x="106.667" y="373.333" width="85.333" height="21.333"/>
	</g>
</g>
<g>
	<g>
		<rect x="213.333" y="373.333" width="21.333" height="21.333"/>
	</g>
</g>
<g>
	<g>
		<path d="M437.333,106.667H416V128h21.333c5.891,0,10.667,4.776,10.667,10.667V160h21.333v-21.333
			C469.333,120.994,455.006,106.667,437.333,106.667z"/>
	</g>
</g>
<g>
</g>
<g>
</g>
<g>
</g>
<g>
</g>
<g>
</g>
<g>
</g>
<g>
</g>
<g>
</g>
<g>
</g>
<g>
</g>
<g>
</g>
<g>
</g>
<g>
</g>
<g>
</g>
<g>
</g>
</svg>
